<?xml version="1.0" standalone="no"?>
<!DOCTYPE svg PUBLIC "-//W3C//DTD SVG 20010904//EN"
 "http://www.w3.org/TR/2001/REC-SVG-20010904/DTD/svg10.dtd">
<svg version="1.0" xmlns="http://www.w3.org/2000/svg"
 width="800.000000pt" height="800.000000pt" viewBox="0 0 800.000000 800.000000"
 preserveAspectRatio="xMidYMid meet">
<metadata>
Created by potrace 1.11, written by Peter Selinger 2001-2013
</metadata>
<g transform="translate(0.000000,800.000000) scale(0.100000,-0.100000)"
fill="#000000" stroke="none">
<path d="M4235 7154 c-188 -25 -414 -88 -569 -160 l-58 -27 118 -61 c66 -34
144 -78 174 -97 l55 -34 -105 -12 c-221 -26 -398 -77 -574 -165 -196 -98 -384
-248 -497 -397 -50 -67 -154 -262 -147 -280 1 -5 49 21 105 59 56 37 139 86
185 110 l83 44 -66 -72 c-118 -127 -176 -278 -166 -432 12 -194 119 -367 344
-564 54 -47 99 -83 101 -82 1 2 -6 19 -17 37 -11 19 -27 61 -35 94 -89 339
231 790 705 996 433 188 965 126 1341 -157 310 -232 495 -602 539 -1074 46
-497 -128 -1077 -451 -1505 -300 -397 -760 -744 -1205 -910 -188 -70 -373
-112 -885 -200 -450 -78 -634 -118 -849 -187 -236 -75 -479 -191 -641 -306
-118 -83 -279 -242 -347 -343 -114 -167 -179 -340 -190 -507 l-6 -93 114 114
c63 62 143 133 179 156 58 38 67 49 101 120 114 244 328 435 669 600 258 124
530 205 1070 316 490 101 685 153 935 252 248 98 419 194 639 361 559 423 938
957 1081 1523 14 54 26 108 26 121 1 16 3 18 6 6 8 -31 -38 -229 -88 -383
-160 -487 -516 -975 -997 -1363 -51 -41 -91 -76 -89 -79 6 -6 160 45 272 89
132 52 327 150 445 223 539 334 955 902 1078 1473 23 107 30 101 -89 77 -116
-24 -321 -53 -312 -45 4 4 55 45 113 90 125 98 328 300 428 424 39 50 70 92
68 94 -2 2 -55 -23 -117 -55 -95 -49 -321 -153 -333 -153 -2 0 62 66 142 147
l145 147 -6 130 c-27 566 -263 1107 -638 1461 -83 78 -198 170 -205 163 -2 -3
5 -43 15 -89 27 -114 51 -254 51 -298 0 -33 -4 -29 -53 64 -89 169 -151 255
-222 308 -224 170 -507 284 -825 331 l-44 7 65 -68 c99 -104 210 -243 263
-332 5 -8 -31 19 -80 58 -125 102 -288 208 -435 285 -141 74 -141 74 -314 50z
m1772 -2716 c-3 -7 -5 -2 -5 12 0 14 2 19 5 13 2 -7 2 -19 0 -25z"/>
<path d="M4222 5969 c-310 -40 -614 -247 -736 -502 -60 -124 -87 -278 -68
-382 l10 -50 1 60 c4 167 75 334 197 464 293 312 757 384 1169 182 248 -122
423 -321 509 -580 54 -164 69 -280 63 -496 -7 -209 -22 -296 -92 -502 -55
-165 -188 -440 -279 -576 -196 -293 -434 -513 -721 -664 -55 -29 -96 -53 -92
-53 21 0 220 85 300 128 448 243 817 730 982 1298 44 151 58 284 52 499 -7
248 -40 393 -132 575 -209 413 -689 661 -1163 599z"/>
<path d="M4150 876 c0 -2 9 -6 20 -9 11 -3 18 -1 14 4 -5 9 -34 13 -34 5z"/>
</g>
</svg>
